<mxfile host="Electron" agent="Mozilla/5.0 (Windows NT 10.0; Win64; x64) AppleWebKit/537.36 (KHTML, like Gecko) draw.io/24.7.17 Chrome/128.0.6613.36 Electron/32.0.1 Safari/537.36" version="24.7.17">
  <diagram id="C5RBs43oDa-KdzZeNtuy" name="Page-1">
    <mxGraphModel dx="941" dy="644" grid="1" gridSize="10" guides="1" tooltips="1" connect="1" arrows="1" fold="1" page="1" pageScale="1" pageWidth="827" pageHeight="1169" math="0" shadow="0">
      <root>
        <mxCell id="WIyWlLk6GJQsqaUBKTNV-0" />
        <mxCell id="WIyWlLk6GJQsqaUBKTNV-1" parent="WIyWlLk6GJQsqaUBKTNV-0" />
        <mxCell id="tG1hGK9fX6ViWs7RZ0Ur-1" value="&lt;font style=&quot;font-size: 18px;&quot;&gt;input&lt;/font&gt;&lt;div style=&quot;font-size: 18px;&quot;&gt;&lt;font style=&quot;font-size: 18px;&quot;&gt;milesTraveled&lt;/font&gt;&lt;/div&gt;" style="shape=parallelogram;perimeter=parallelogramPerimeter;whiteSpace=wrap;html=1;fixedSize=1;" vertex="1" parent="WIyWlLk6GJQsqaUBKTNV-1">
          <mxGeometry x="210" y="150" width="150" height="80" as="geometry" />
        </mxCell>
        <mxCell id="tG1hGK9fX6ViWs7RZ0Ur-13" style="edgeStyle=orthogonalEdgeStyle;rounded=0;orthogonalLoop=1;jettySize=auto;html=1;exitX=0.5;exitY=1;exitDx=0;exitDy=0;entryX=0;entryY=0.5;entryDx=0;entryDy=0;" edge="1" parent="WIyWlLk6GJQsqaUBKTNV-1" source="tG1hGK9fX6ViWs7RZ0Ur-2" target="tG1hGK9fX6ViWs7RZ0Ur-5">
          <mxGeometry relative="1" as="geometry" />
        </mxCell>
        <mxCell id="tG1hGK9fX6ViWs7RZ0Ur-2" value="&lt;font style=&quot;font-size: 18px;&quot;&gt;input&lt;/font&gt;&lt;div style=&quot;font-size: 18px;&quot;&gt;&lt;font style=&quot;font-size: 18px;&quot;&gt;gallonsGasUsed&lt;/font&gt;&lt;/div&gt;" style="shape=parallelogram;perimeter=parallelogramPerimeter;whiteSpace=wrap;html=1;fixedSize=1;" vertex="1" parent="WIyWlLk6GJQsqaUBKTNV-1">
          <mxGeometry x="365" y="250" width="170" height="90" as="geometry" />
        </mxCell>
        <mxCell id="tG1hGK9fX6ViWs7RZ0Ur-4" style="edgeStyle=orthogonalEdgeStyle;rounded=0;orthogonalLoop=1;jettySize=auto;html=1;exitX=1;exitY=1;exitDx=0;exitDy=0;entryX=0.833;entryY=0.969;entryDx=0;entryDy=0;entryPerimeter=0;" edge="1" parent="WIyWlLk6GJQsqaUBKTNV-1" source="tG1hGK9fX6ViWs7RZ0Ur-2" target="tG1hGK9fX6ViWs7RZ0Ur-2">
          <mxGeometry relative="1" as="geometry" />
        </mxCell>
        <mxCell id="tG1hGK9fX6ViWs7RZ0Ur-15" style="edgeStyle=orthogonalEdgeStyle;rounded=0;orthogonalLoop=1;jettySize=auto;html=1;exitX=0.75;exitY=1;exitDx=0;exitDy=0;entryX=0.5;entryY=1;entryDx=0;entryDy=0;" edge="1" parent="WIyWlLk6GJQsqaUBKTNV-1" source="tG1hGK9fX6ViWs7RZ0Ur-5" target="tG1hGK9fX6ViWs7RZ0Ur-9">
          <mxGeometry relative="1" as="geometry" />
        </mxCell>
        <mxCell id="tG1hGK9fX6ViWs7RZ0Ur-5" value="&lt;font style=&quot;font-size: 18px;&quot;&gt;milesPerGallon = milesTraveled / gallonsGasUsed&lt;/font&gt;" style="rounded=0;whiteSpace=wrap;html=1;" vertex="1" parent="WIyWlLk6GJQsqaUBKTNV-1">
          <mxGeometry x="530" y="380" width="170" height="90" as="geometry" />
        </mxCell>
        <mxCell id="tG1hGK9fX6ViWs7RZ0Ur-10" style="edgeStyle=orthogonalEdgeStyle;rounded=0;orthogonalLoop=1;jettySize=auto;html=1;exitX=0;exitY=1;exitDx=0;exitDy=0;entryX=0.5;entryY=0;entryDx=0;entryDy=0;" edge="1" parent="WIyWlLk6GJQsqaUBKTNV-1" source="tG1hGK9fX6ViWs7RZ0Ur-7" target="tG1hGK9fX6ViWs7RZ0Ur-1">
          <mxGeometry relative="1" as="geometry" />
        </mxCell>
        <mxCell id="tG1hGK9fX6ViWs7RZ0Ur-7" value="&lt;font style=&quot;font-size: 18px;&quot;&gt;start&lt;/font&gt;" style="shape=ellipse;html=1;dashed=0;whiteSpace=wrap;perimeter=ellipsePerimeter;" vertex="1" parent="WIyWlLk6GJQsqaUBKTNV-1">
          <mxGeometry x="365" y="30" width="150" height="80" as="geometry" />
        </mxCell>
        <mxCell id="tG1hGK9fX6ViWs7RZ0Ur-8" value="&lt;font style=&quot;font-size: 18px;&quot;&gt;stop&lt;/font&gt;" style="shape=ellipse;html=1;dashed=0;whiteSpace=wrap;perimeter=ellipsePerimeter;" vertex="1" parent="WIyWlLk6GJQsqaUBKTNV-1">
          <mxGeometry x="90" y="497.5" width="170" height="95" as="geometry" />
        </mxCell>
        <mxCell id="tG1hGK9fX6ViWs7RZ0Ur-16" style="edgeStyle=orthogonalEdgeStyle;rounded=0;orthogonalLoop=1;jettySize=auto;html=1;exitX=0;exitY=0.5;exitDx=0;exitDy=0;entryX=1;entryY=0.5;entryDx=0;entryDy=0;" edge="1" parent="WIyWlLk6GJQsqaUBKTNV-1" source="tG1hGK9fX6ViWs7RZ0Ur-9" target="tG1hGK9fX6ViWs7RZ0Ur-8">
          <mxGeometry relative="1" as="geometry" />
        </mxCell>
        <mxCell id="tG1hGK9fX6ViWs7RZ0Ur-9" value="&lt;font style=&quot;font-size: 18px;&quot;&gt;output&lt;/font&gt;&lt;div style=&quot;font-size: 18px;&quot;&gt;&lt;font style=&quot;font-size: 18px;&quot;&gt;milesPerGallon&lt;/font&gt;&lt;/div&gt;" style="shape=parallelogram;perimeter=parallelogramPerimeter;whiteSpace=wrap;html=1;fixedSize=1;" vertex="1" parent="WIyWlLk6GJQsqaUBKTNV-1">
          <mxGeometry x="340" y="500" width="175" height="90" as="geometry" />
        </mxCell>
        <mxCell id="tG1hGK9fX6ViWs7RZ0Ur-11" style="edgeStyle=orthogonalEdgeStyle;rounded=0;orthogonalLoop=1;jettySize=auto;html=1;exitX=1;exitY=0.5;exitDx=0;exitDy=0;entryX=0.562;entryY=-0.028;entryDx=0;entryDy=0;entryPerimeter=0;" edge="1" parent="WIyWlLk6GJQsqaUBKTNV-1" source="tG1hGK9fX6ViWs7RZ0Ur-1" target="tG1hGK9fX6ViWs7RZ0Ur-2">
          <mxGeometry relative="1" as="geometry" />
        </mxCell>
        <mxCell id="tG1hGK9fX6ViWs7RZ0Ur-14" style="edgeStyle=orthogonalEdgeStyle;rounded=0;orthogonalLoop=1;jettySize=auto;html=1;exitX=1;exitY=0.5;exitDx=0;exitDy=0;entryX=0.991;entryY=0.594;entryDx=0;entryDy=0;entryPerimeter=0;" edge="1" parent="WIyWlLk6GJQsqaUBKTNV-1" source="tG1hGK9fX6ViWs7RZ0Ur-5" target="tG1hGK9fX6ViWs7RZ0Ur-5">
          <mxGeometry relative="1" as="geometry" />
        </mxCell>
      </root>
    </mxGraphModel>
  </diagram>
</mxfile>
